<?xml version="1.0" encoding="utf-8"?>
<!-- Generator: Adobe Illustrator 21.0.2, SVG Export Plug-In . SVG Version: 6.00 Build 0)  -->
<svg version="1.1" id="Livello_1" xmlns="http://www.w3.org/2000/svg" xmlns:xlink="http://www.w3.org/1999/xlink" x="0px" y="0px"
	 viewBox="0 0 391 185" style="enable-background:new 0 0 391 185;" xml:space="preserve">
<style type="text/css">
	.st0{fill:url(#SVGID_1_);}
	.st1{fill:url(#SVGID_2_);}
	.st2{fill:#959595;}
	.st3{clip-path:url(#SVGID_5_);fill:url(#SVGID_6_);}
	.st4{clip-path:url(#SVGID_5_);fill:url(#SVGID_7_);}
	.st5{clip-path:url(#SVGID_5_);fill:url(#SVGID_8_);}
	.st6{clip-path:url(#SVGID_5_);fill:url(#SVGID_9_);}
	.st7{clip-path:url(#SVGID_5_);fill:url(#SVGID_10_);}
	.st8{clip-path:url(#SVGID_5_);fill:url(#SVGID_11_);}
	.st9{clip-path:url(#SVGID_5_);fill:url(#SVGID_12_);}
	.st10{clip-path:url(#SVGID_5_);fill:url(#SVGID_13_);}
	.st11{clip-path:url(#SVGID_5_);fill:url(#SVGID_14_);}
	.st12{clip-path:url(#SVGID_5_);fill:url(#SVGID_15_);}
	.st13{clip-path:url(#SVGID_5_);fill:url(#SVGID_16_);}
	.st14{clip-path:url(#SVGID_5_);fill:url(#SVGID_17_);}
	.st15{clip-path:url(#SVGID_5_);fill:url(#SVGID_18_);}
	.st16{clip-path:url(#SVGID_5_);fill:url(#SVGID_19_);}
	.st17{clip-path:url(#SVGID_5_);fill:url(#SVGID_20_);}
	.st18{clip-path:url(#SVGID_5_);fill:url(#SVGID_21_);}
	.st19{clip-path:url(#SVGID_5_);fill:url(#SVGID_22_);}
	.st20{clip-path:url(#SVGID_5_);fill:url(#SVGID_23_);}
	.st21{clip-path:url(#SVGID_5_);fill:url(#SVGID_24_);}
	.st22{clip-path:url(#SVGID_5_);fill:url(#SVGID_25_);}
	.st23{clip-path:url(#SVGID_5_);fill:url(#SVGID_26_);}
	.st24{clip-path:url(#SVGID_5_);fill:url(#SVGID_27_);}
	.st25{clip-path:url(#SVGID_5_);fill:url(#SVGID_28_);}
	.st26{clip-path:url(#SVGID_5_);fill:url(#SVGID_29_);}
	.st27{clip-path:url(#SVGID_5_);fill:url(#SVGID_30_);}
	.st28{clip-path:url(#SVGID_5_);fill:url(#SVGID_31_);}
	.st29{clip-path:url(#SVGID_5_);fill:url(#SVGID_32_);}
	.st30{clip-path:url(#SVGID_5_);fill:url(#SVGID_33_);}
	.st31{clip-path:url(#SVGID_5_);fill:url(#SVGID_34_);}
	.st32{clip-path:url(#SVGID_5_);fill:url(#SVGID_35_);}
	.st33{clip-path:url(#SVGID_5_);fill:url(#SVGID_36_);}
	.st34{clip-path:url(#SVGID_5_);fill:url(#SVGID_37_);}
	.st35{clip-path:url(#SVGID_5_);fill:url(#SVGID_38_);}
	.st36{clip-path:url(#SVGID_5_);fill:url(#SVGID_39_);}
	.st37{clip-path:url(#SVGID_5_);fill:url(#SVGID_40_);}
	.st38{clip-path:url(#SVGID_5_);fill:url(#SVGID_41_);}
	.st39{clip-path:url(#SVGID_5_);fill:url(#SVGID_42_);}
	.st40{clip-path:url(#SVGID_5_);fill:url(#SVGID_43_);}
	.st41{clip-path:url(#SVGID_5_);fill:url(#SVGID_44_);}
	.st42{clip-path:url(#SVGID_5_);fill:url(#SVGID_45_);}
	.st43{clip-path:url(#SVGID_5_);fill:url(#SVGID_46_);}
	.st44{clip-path:url(#SVGID_5_);fill:url(#SVGID_47_);}
	.st45{clip-path:url(#SVGID_5_);fill:url(#SVGID_48_);}
	.st46{clip-path:url(#SVGID_5_);fill:url(#SVGID_49_);}
	.st47{clip-path:url(#SVGID_5_);fill:url(#SVGID_50_);}
	.st48{clip-path:url(#SVGID_5_);fill:url(#SVGID_51_);}
	.st49{clip-path:url(#SVGID_5_);fill:url(#SVGID_52_);}
	.st50{clip-path:url(#SVGID_5_);fill:url(#SVGID_53_);}
	.st51{clip-path:url(#SVGID_5_);fill:url(#SVGID_54_);}
	.st52{clip-path:url(#SVGID_5_);fill:url(#SVGID_55_);}
	.st53{clip-path:url(#SVGID_5_);fill:url(#SVGID_56_);}
	.st54{clip-path:url(#SVGID_5_);fill:url(#SVGID_57_);}
	.st55{clip-path:url(#SVGID_5_);fill:url(#SVGID_58_);}
	.st56{clip-path:url(#SVGID_5_);fill:url(#SVGID_59_);}
	.st57{clip-path:url(#SVGID_5_);fill:url(#SVGID_60_);}
	.st58{clip-path:url(#SVGID_5_);fill:url(#SVGID_61_);}
	.st59{clip-path:url(#SVGID_5_);fill:url(#SVGID_62_);}
	.st60{clip-path:url(#SVGID_5_);fill:url(#SVGID_63_);}
	.st61{clip-path:url(#SVGID_5_);fill:url(#SVGID_64_);}
	.st62{clip-path:url(#SVGID_5_);fill:url(#SVGID_65_);}
	.st63{clip-path:url(#SVGID_5_);fill:url(#SVGID_66_);}
	.st64{clip-path:url(#SVGID_5_);fill:url(#SVGID_67_);}
	.st65{clip-path:url(#SVGID_5_);fill:url(#SVGID_68_);}
	.st66{clip-path:url(#SVGID_5_);fill:url(#SVGID_69_);}
	.st67{clip-path:url(#SVGID_5_);fill:url(#SVGID_70_);}
	.st68{clip-path:url(#SVGID_5_);fill:url(#SVGID_71_);}
	.st69{clip-path:url(#SVGID_5_);fill:url(#SVGID_72_);}
	.st70{clip-path:url(#SVGID_5_);fill:url(#SVGID_73_);}
	.st71{clip-path:url(#SVGID_5_);fill:url(#SVGID_74_);}
	.st72{clip-path:url(#SVGID_5_);fill:url(#SVGID_75_);}
	.st73{clip-path:url(#SVGID_5_);fill:url(#SVGID_76_);}
	.st74{clip-path:url(#SVGID_5_);fill:url(#SVGID_77_);}
	.st75{clip-path:url(#SVGID_5_);fill:url(#SVGID_78_);}
	.st76{clip-path:url(#SVGID_5_);fill:url(#SVGID_79_);}
	.st77{clip-path:url(#SVGID_5_);fill:url(#SVGID_80_);}
	.st78{clip-path:url(#SVGID_5_);fill:url(#SVGID_81_);}
	.st79{clip-path:url(#SVGID_5_);fill:url(#SVGID_82_);}
	.st80{clip-path:url(#SVGID_5_);fill:url(#SVGID_83_);}
	.st81{clip-path:url(#SVGID_5_);fill:url(#SVGID_84_);}
	.st82{clip-path:url(#SVGID_5_);fill:url(#SVGID_85_);}
	.st83{clip-path:url(#SVGID_5_);fill:url(#SVGID_86_);}
	.st84{clip-path:url(#SVGID_5_);fill:url(#SVGID_87_);}
	.st85{clip-path:url(#SVGID_5_);fill:url(#SVGID_88_);}
	.st86{clip-path:url(#SVGID_5_);fill:url(#SVGID_89_);}
	.st87{clip-path:url(#SVGID_5_);fill:url(#SVGID_90_);}
	.st88{clip-path:url(#SVGID_5_);fill:url(#SVGID_91_);}
	.st89{clip-path:url(#SVGID_5_);fill:url(#SVGID_92_);}
	.st90{clip-path:url(#SVGID_5_);fill:url(#SVGID_93_);}
	.st91{clip-path:url(#SVGID_5_);fill:url(#SVGID_94_);}
	.st92{clip-path:url(#SVGID_5_);fill:url(#SVGID_95_);}
	.st93{clip-path:url(#SVGID_5_);fill:url(#SVGID_96_);}
	.st94{clip-path:url(#SVGID_5_);fill:url(#SVGID_97_);}
	.st95{clip-path:url(#SVGID_5_);fill:url(#SVGID_98_);}
	.st96{clip-path:url(#SVGID_5_);fill:url(#SVGID_99_);}
	.st97{clip-path:url(#SVGID_5_);fill:url(#SVGID_100_);}
	.st98{clip-path:url(#SVGID_5_);fill:url(#SVGID_101_);}
	.st99{fill:url(#SVGID_102_);}
</style>
<linearGradient id="SVGID_1_" gradientUnits="userSpaceOnUse" x1="85.0197" y1="7.4353" x2="85.0197" y2="107.4353">
	<stop  offset="4.697903e-08" style="stop-color:#A8FF78"/>
	<stop  offset="1" style="stop-color:#78FFD6"/>
</linearGradient>
<path class="st0" d="M109.9,19.9c-12.6,3.3-17,14.2-16.3,18.8c0.2-0.1,0.5-0.3,0.7-0.4c1.1-0.7,2.3-1.3,3.6-2
	c1.2-0.7,2.6-1.3,3.9-1.9c0.7-0.3,1.4-0.6,2.1-0.9L105,33c0.5-0.2,0.7-0.3,1.1-0.4l2.1-0.7c0.7-0.2,1.5-0.4,2.2-0.6
	c1.5-0.4,2.9-0.8,4.3-1.1c2.8-0.6,5.4-1.1,7.6-1.4c4.5-0.7,7.5-0.8,7.5-0.8s-0.7,0.3-1.9,0.8c-1.2,0.5-3,1.2-5.1,2
	c-1.1,0.4-2.2,0.8-3.4,1.3c-1.2,0.4-2.5,0.9-3.8,1.3c-1.3,0.5-2.6,0.9-4,1.4c-1.3,0.5-2.7,1-4.1,1.5c-1.3,0.5-2.7,1.1-4,1.7
	c-1.3,0.6-3.6,1.4-4.9,1.9c-1.5,0.6-2.5,1-3.5,1.5c-11,6.4-15.9,17.8-18.9,29.9C75.7,60.1,73.3,49.1,65.1,41c0,0,0,0,0,0
	c-1.1-1-2.3-2.2-3.4-3.3c-1-1-2-2-3-3.1c-1-1-2-2.1-3.1-3.1c-1.1-1-2.2-2.1-3.3-3c-1.1-1-2.1-1.9-3.2-2.9c-1-0.9-2.1-1.8-3-2.7
	c-0.9-0.9-1.8-1.7-2.7-2.5c-1.6-1.6-3-2.9-3.9-3.8c-0.9-1-1.5-1.5-1.5-1.5s2.8,1.3,6.7,3.6c1.9,1.2,4.2,2.6,6.5,4.2
	c1.2,0.8,2.3,1.7,3.6,2.6c0.6,0.5,1.2,0.9,1.8,1.4l1.7,1.5c0.3,0.3,0.5,0.4,0.9,0.8l0.8,0.8c0.5,0.5,1.1,1.1,1.6,1.6
	c1,1.1,2,2.2,2.9,3.3c0.9,1.1,1.8,2.2,2.5,3.2c0.2,0.2,0.3,0.4,0.5,0.7c2.4-3.9,2.5-15.7-7.9-23.6c-11.3-8.6-27.2-4.7-33.8-7.9
	c6.7,10.2,5.4,17.1,16.6,28.3c7.5,7.5,14.5,8,19.2,6.7c9.6,9.2,11.1,23.3,11.1,36.8c-1-0.8-2.2-1.4-3.6-1.4c-3.9,0-6.7,2.2-8.1,5.3
	c-8.6-2.9-14.2,3.9-14.7,9.6c-4.1-1.5-9.2,3.2-9.2,7.2c0,4,3.2,7.3,7.2,7.4l63,0.1c0,0,6.7-3.6,6.7-7.6c0-4.1-3.3-7.5-7.5-7.5
	c-0.6,0-1.1,0.1-1.6,0.2c0-0.3-0.7-13-11.7-7.9c-0.9-4-2-6.9-8.6-6.9c-3.3,0-5.5,1.2-6.9,2.4c2.8-14,7-28.7,19.4-35.9
	c0.1-0.1,0.2-0.2,0.3-0.3c3.8,3.1,10.5,5.5,20.5,1.3c14.7-6.1,16.1-12.9,26.2-19.8C136.8,25.9,123.7,16.3,109.9,19.9z M75.6,82.5
	l0.4-0.4c-0.2,0.3-0.3,0.6-0.3,0.6S75.7,82.6,75.6,82.5z"/>
<linearGradient id="SVGID_2_" gradientUnits="userSpaceOnUse" x1="335.5054" y1="7.4353" x2="335.5054" y2="107.4353">
	<stop  offset="4.697903e-08" style="stop-color:#A8FF78"/>
	<stop  offset="1" style="stop-color:#78FFD6"/>
</linearGradient>
<path class="st1" d="M335.5,7.4c12.8,0,23.2,10.4,23.2,23.2s-10.4,23.2-23.2,23.2s-23.2-10.4-23.2-23.2S322.7,7.4,335.5,7.4z
	 M335.5,65.4c-23.2,0-42.1,18.8-42.1,42.1h84.1C377.6,84.2,358.7,65.4,335.5,65.4z"/>
<g>
	<path class="st2" d="M14.1,161.2c1.1,0.5,1.9,1.2,2.5,2.1c0.6,0.9,0.9,2,0.9,3.2c0,1.2-0.3,2.3-0.9,3.2c-0.6,0.9-1.4,1.6-2.5,2.1
		c-1.1,0.5-2.3,0.7-3.8,0.7H6.6v4.8H3.4v-16.8h6.9C11.8,160.5,13.1,160.8,14.1,161.2z M13.3,169c0.7-0.6,1.1-1.4,1.1-2.5
		c0-1.1-0.4-1.9-1.1-2.5c-0.7-0.6-1.7-0.9-3.1-0.9H6.6v6.7h3.6C11.6,169.8,12.6,169.5,13.3,169z"/>
	<path class="st2" d="M31.6,177.3l-3.4-4.9c-0.1,0-0.4,0-0.6,0h-3.8v4.9h-3.1v-16.8h6.9c1.5,0,2.7,0.2,3.8,0.7
		c1.1,0.5,1.9,1.2,2.5,2.1c0.6,0.9,0.9,2,0.9,3.2c0,1.3-0.3,2.4-0.9,3.3c-0.6,0.9-1.5,1.6-2.7,2l3.9,5.5H31.6z M30.5,164
		c-0.7-0.6-1.7-0.9-3.1-0.9h-3.6v6.7h3.6c1.4,0,2.4-0.3,3.1-0.9c0.7-0.6,1.1-1.4,1.1-2.5C31.5,165.4,31.2,164.6,30.5,164z"/>
	<path class="st2" d="M41.4,176.4c-1.4-0.7-2.5-1.8-3.2-3.1c-0.8-1.3-1.2-2.8-1.2-4.4c0-1.6,0.4-3.1,1.2-4.4
		c0.8-1.3,1.9-2.4,3.2-3.1c1.4-0.7,2.9-1.1,4.6-1.1c1.7,0,3.3,0.4,4.6,1.1s2.5,1.8,3.2,3.1c0.8,1.3,1.2,2.8,1.2,4.4
		c0,1.6-0.4,3.1-1.2,4.4c-0.8,1.3-1.9,2.3-3.2,3.1s-2.9,1.1-4.6,1.1C44.3,177.6,42.8,177.2,41.4,176.4z M49,174.1
		c0.9-0.5,1.6-1.2,2.1-2.1c0.5-0.9,0.8-1.9,0.8-3c0-1.1-0.3-2.1-0.8-3c-0.5-0.9-1.2-1.6-2.1-2.1s-1.9-0.8-3-0.8
		c-1.1,0-2.1,0.3-3,0.8c-0.9,0.5-1.6,1.2-2.1,2.1c-0.5,0.9-0.8,1.9-0.8,3c0,1.1,0.3,2.1,0.8,3c0.5,0.9,1.2,1.6,2.1,2.1
		c0.9,0.5,1.9,0.8,3,0.8C47.1,174.8,48.1,174.6,49,174.1z"/>
	<path class="st2" d="M58.4,160.5h7.3c1.8,0,3.4,0.3,4.8,1s2.5,1.7,3.2,3c0.8,1.3,1.2,2.7,1.2,4.4c0,1.7-0.4,3.1-1.2,4.4
		c-0.8,1.3-1.8,2.3-3.2,3s-3,1-4.8,1h-7.3V160.5z M65.6,174.7c1.2,0,2.3-0.2,3.3-0.7s1.7-1.1,2.2-2c0.5-0.9,0.8-1.9,0.8-3
		c0-1.2-0.3-2.2-0.8-3c-0.5-0.9-1.2-1.5-2.2-2c-0.9-0.5-2-0.7-3.3-0.7h-4.1v11.5H65.6z"/>
	<path class="st2" d="M80,175.6c-1.3-1.3-1.9-3.2-1.9-5.6v-9.5h3.1v9.4c0,3.3,1.4,4.9,4.3,4.9c2.8,0,4.2-1.6,4.2-4.9v-9.4h3.1v9.5
		c0,2.4-0.6,4.3-1.9,5.6c-1.3,1.3-3.1,2-5.4,2C83.1,177.6,81.3,176.9,80,175.6z"/>
	<path class="st2" d="M100.2,163.2h-5.6v-2.6h14.3v2.6h-5.6v14.2h-3.1V163.2z"/>
	<path class="st2" d="M114.9,163.2h-5.6v-2.6h14.3v2.6H118v14.2h-3.1V163.2z"/>
	<path class="st2" d="M128.9,176.4c-1.4-0.7-2.5-1.8-3.2-3.1c-0.8-1.3-1.2-2.8-1.2-4.4c0-1.6,0.4-3.1,1.2-4.4
		c0.8-1.3,1.9-2.4,3.2-3.1c1.4-0.7,2.9-1.1,4.6-1.1c1.7,0,3.3,0.4,4.6,1.1s2.5,1.8,3.2,3.1c0.8,1.3,1.2,2.8,1.2,4.4
		c0,1.6-0.4,3.1-1.2,4.4c-0.8,1.3-1.9,2.3-3.2,3.1s-2.9,1.1-4.6,1.1C131.8,177.6,130.3,177.2,128.9,176.4z M136.6,174.1
		c0.9-0.5,1.6-1.2,2.1-2.1c0.5-0.9,0.8-1.9,0.8-3c0-1.1-0.3-2.1-0.8-3c-0.5-0.9-1.2-1.6-2.1-2.1s-1.9-0.8-3-0.8
		c-1.1,0-2.1,0.3-3,0.8c-0.9,0.5-1.6,1.2-2.1,2.1c-0.5,0.9-0.8,1.9-0.8,3c0,1.1,0.3,2.1,0.8,3c0.5,0.9,1.2,1.6,2.1,2.1
		c0.9,0.5,1.9,0.8,3,0.8C134.7,174.8,135.7,174.6,136.6,174.1z"/>
	<path class="st2" d="M156.9,177.3l-3.4-4.9c-0.1,0-0.4,0-0.6,0H149v4.9h-3.1v-16.8h6.9c1.5,0,2.7,0.2,3.8,0.7
		c1.1,0.5,1.9,1.2,2.5,2.1c0.6,0.9,0.9,2,0.9,3.2c0,1.3-0.3,2.4-0.9,3.3c-0.6,0.9-1.5,1.6-2.7,2l3.9,5.5H156.9z M155.8,164
		c-0.7-0.6-1.7-0.9-3.1-0.9H149v6.7h3.6c1.4,0,2.4-0.3,3.1-0.9c0.7-0.6,1.1-1.4,1.1-2.5C156.8,165.4,156.5,164.6,155.8,164z"/>
	<path class="st2" d="M163.5,160.5h3.1v16.8h-3.1V160.5z"/>
</g>
<g>
	<path class="st2" d="M324.6,163.2h-5.6v-2.6h14.3v2.6h-5.6v14.2h-3.1V163.2z"/>
	<path class="st2" d="M337.2,175.6c-1.3-1.3-1.9-3.2-1.9-5.6v-9.5h3.1v9.4c0,3.3,1.4,4.9,4.3,4.9c2.8,0,4.2-1.6,4.2-4.9v-9.4h3.1
		v9.5c0,2.4-0.6,4.3-1.9,5.6c-1.3,1.3-3.1,2-5.4,2C340.3,177.6,338.5,176.9,337.2,175.6z"/>
</g>
<g>
	<g>
		<g>
			<defs>
				<rect id="SVGID_3_" x="169.2" y="56.4" width="75" height="5"/>
			</defs>
			<linearGradient id="SVGID_4_" gradientUnits="userSpaceOnUse" x1="169.1711" y1="58.9353" x2="244.1711" y2="58.9353">
				<stop  offset="4.697903e-08" style="stop-color:#A8FF78"/>
				<stop  offset="1" style="stop-color:#78FFD6"/>
			</linearGradient>
			<use xlink:href="#SVGID_3_"  style="overflow:visible;fill:url(#SVGID_4_);"/>
			<clipPath id="SVGID_5_">
				<use xlink:href="#SVGID_3_"  style="overflow:visible;"/>
			</clipPath>
			<linearGradient id="SVGID_6_" gradientUnits="userSpaceOnUse" x1="169.1711" y1="58.9353" x2="169.1711" y2="58.9353">
				<stop  offset="4.697903e-08" style="stop-color:#A8FF78"/>
				<stop  offset="1" style="stop-color:#78FFD6"/>
			</linearGradient>
			<rect x="169.2" y="56.4" class="st3" width="0" height="5"/>
			<linearGradient id="SVGID_7_" gradientUnits="userSpaceOnUse" x1="169.1711" y1="58.9353" x2="169.969" y2="58.9353">
				<stop  offset="4.697903e-08" style="stop-color:#A8FF78"/>
				<stop  offset="1" style="stop-color:#78FFD6"/>
			</linearGradient>
			<rect x="169.2" y="56.4" class="st4" width="0.8" height="5"/>
			<linearGradient id="SVGID_8_" gradientUnits="userSpaceOnUse" x1="169.969" y1="58.9353" x2="170.7669" y2="58.9353">
				<stop  offset="4.697903e-08" style="stop-color:#A8FF78"/>
				<stop  offset="1" style="stop-color:#78FFD6"/>
			</linearGradient>
			<rect x="170" y="56.4" class="st5" width="0.8" height="5"/>
			<linearGradient id="SVGID_9_" gradientUnits="userSpaceOnUse" x1="170.7669" y1="58.9353" x2="171.5647" y2="58.9353">
				<stop  offset="4.697903e-08" style="stop-color:#A8FF78"/>
				<stop  offset="1" style="stop-color:#78FFD6"/>
			</linearGradient>
			<rect x="170.8" y="56.4" class="st6" width="0.8" height="5"/>
			<linearGradient id="SVGID_10_" gradientUnits="userSpaceOnUse" x1="171.5647" y1="58.9353" x2="172.3626" y2="58.9353">
				<stop  offset="4.697903e-08" style="stop-color:#A8FF78"/>
				<stop  offset="1" style="stop-color:#78FFD6"/>
			</linearGradient>
			<rect x="171.6" y="56.4" class="st7" width="0.8" height="5"/>
			<linearGradient id="SVGID_11_" gradientUnits="userSpaceOnUse" x1="172.3626" y1="58.9353" x2="173.1605" y2="58.9353">
				<stop  offset="4.697903e-08" style="stop-color:#A8FF78"/>
				<stop  offset="1" style="stop-color:#78FFD6"/>
			</linearGradient>
			<rect x="172.4" y="56.4" class="st8" width="0.8" height="5"/>
			<linearGradient id="SVGID_12_" gradientUnits="userSpaceOnUse" x1="173.1605" y1="58.9353" x2="173.9584" y2="58.9353">
				<stop  offset="4.697903e-08" style="stop-color:#A8FF78"/>
				<stop  offset="1" style="stop-color:#78FFD6"/>
			</linearGradient>
			<rect x="173.2" y="56.4" class="st9" width="0.8" height="5"/>
			<linearGradient id="SVGID_13_" gradientUnits="userSpaceOnUse" x1="173.9584" y1="58.9353" x2="174.7562" y2="58.9353">
				<stop  offset="4.697903e-08" style="stop-color:#A8FF78"/>
				<stop  offset="1" style="stop-color:#78FFD6"/>
			</linearGradient>
			<rect x="174" y="56.4" class="st10" width="0.8" height="5"/>
			<linearGradient id="SVGID_14_" gradientUnits="userSpaceOnUse" x1="174.7562" y1="58.9353" x2="175.5541" y2="58.9353">
				<stop  offset="4.697903e-08" style="stop-color:#A8FF78"/>
				<stop  offset="1" style="stop-color:#78FFD6"/>
			</linearGradient>
			<rect x="174.8" y="56.4" class="st11" width="0.8" height="5"/>
			<linearGradient id="SVGID_15_" gradientUnits="userSpaceOnUse" x1="175.5541" y1="58.9353" x2="176.352" y2="58.9353">
				<stop  offset="4.697903e-08" style="stop-color:#A8FF78"/>
				<stop  offset="1" style="stop-color:#78FFD6"/>
			</linearGradient>
			<rect x="175.6" y="56.4" class="st12" width="0.8" height="5"/>
			<linearGradient id="SVGID_16_" gradientUnits="userSpaceOnUse" x1="176.352" y1="58.9353" x2="177.1499" y2="58.9353">
				<stop  offset="4.697903e-08" style="stop-color:#A8FF78"/>
				<stop  offset="1" style="stop-color:#78FFD6"/>
			</linearGradient>
			<rect x="176.4" y="56.4" class="st13" width="0.8" height="5"/>
			<linearGradient id="SVGID_17_" gradientUnits="userSpaceOnUse" x1="177.1499" y1="58.9353" x2="177.9477" y2="58.9353">
				<stop  offset="4.697903e-08" style="stop-color:#A8FF78"/>
				<stop  offset="1" style="stop-color:#78FFD6"/>
			</linearGradient>
			<rect x="177.1" y="56.4" class="st14" width="0.8" height="5"/>
			<linearGradient id="SVGID_18_" gradientUnits="userSpaceOnUse" x1="177.9477" y1="58.9353" x2="178.7456" y2="58.9353">
				<stop  offset="4.697903e-08" style="stop-color:#A8FF78"/>
				<stop  offset="1" style="stop-color:#78FFD6"/>
			</linearGradient>
			<rect x="177.9" y="56.4" class="st15" width="0.8" height="5"/>
			<linearGradient id="SVGID_19_" gradientUnits="userSpaceOnUse" x1="178.7456" y1="58.9353" x2="179.5435" y2="58.9353">
				<stop  offset="4.697903e-08" style="stop-color:#A8FF78"/>
				<stop  offset="1" style="stop-color:#78FFD6"/>
			</linearGradient>
			<rect x="178.7" y="56.4" class="st16" width="0.8" height="5"/>
			<linearGradient id="SVGID_20_" gradientUnits="userSpaceOnUse" x1="179.5435" y1="58.9353" x2="180.3413" y2="58.9353">
				<stop  offset="4.697903e-08" style="stop-color:#A8FF78"/>
				<stop  offset="1" style="stop-color:#78FFD6"/>
			</linearGradient>
			<rect x="179.5" y="56.4" class="st17" width="0.8" height="5"/>
			<linearGradient id="SVGID_21_" gradientUnits="userSpaceOnUse" x1="180.3413" y1="58.9353" x2="181.1392" y2="58.9353">
				<stop  offset="4.697903e-08" style="stop-color:#A8FF78"/>
				<stop  offset="1" style="stop-color:#78FFD6"/>
			</linearGradient>
			<rect x="180.3" y="56.4" class="st18" width="0.8" height="5"/>
			<linearGradient id="SVGID_22_" gradientUnits="userSpaceOnUse" x1="181.1392" y1="58.9353" x2="181.9371" y2="58.9353">
				<stop  offset="4.697903e-08" style="stop-color:#A8FF78"/>
				<stop  offset="1" style="stop-color:#78FFD6"/>
			</linearGradient>
			<rect x="181.1" y="56.4" class="st19" width="0.8" height="5"/>
			<linearGradient id="SVGID_23_" gradientUnits="userSpaceOnUse" x1="181.9371" y1="58.9353" x2="182.735" y2="58.9353">
				<stop  offset="4.697903e-08" style="stop-color:#A8FF78"/>
				<stop  offset="1" style="stop-color:#78FFD6"/>
			</linearGradient>
			<rect x="181.9" y="56.4" class="st20" width="0.8" height="5"/>
			<linearGradient id="SVGID_24_" gradientUnits="userSpaceOnUse" x1="182.735" y1="58.9353" x2="183.5328" y2="58.9353">
				<stop  offset="4.697903e-08" style="stop-color:#A8FF78"/>
				<stop  offset="1" style="stop-color:#78FFD6"/>
			</linearGradient>
			<rect x="182.7" y="56.4" class="st21" width="0.8" height="5"/>
			<linearGradient id="SVGID_25_" gradientUnits="userSpaceOnUse" x1="183.5328" y1="58.9353" x2="184.3307" y2="58.9353">
				<stop  offset="4.697903e-08" style="stop-color:#A8FF78"/>
				<stop  offset="1" style="stop-color:#78FFD6"/>
			</linearGradient>
			<rect x="183.5" y="56.4" class="st22" width="0.8" height="5"/>
			<linearGradient id="SVGID_26_" gradientUnits="userSpaceOnUse" x1="184.3307" y1="58.9353" x2="185.1286" y2="58.9353">
				<stop  offset="4.697903e-08" style="stop-color:#A8FF78"/>
				<stop  offset="1" style="stop-color:#78FFD6"/>
			</linearGradient>
			<rect x="184.3" y="56.4" class="st23" width="0.8" height="5"/>
			<linearGradient id="SVGID_27_" gradientUnits="userSpaceOnUse" x1="185.1286" y1="58.9353" x2="185.9265" y2="58.9353">
				<stop  offset="4.697903e-08" style="stop-color:#A8FF78"/>
				<stop  offset="1" style="stop-color:#78FFD6"/>
			</linearGradient>
			<rect x="185.1" y="56.4" class="st24" width="0.8" height="5"/>
			<linearGradient id="SVGID_28_" gradientUnits="userSpaceOnUse" x1="185.9265" y1="58.9353" x2="186.7243" y2="58.9353">
				<stop  offset="4.697903e-08" style="stop-color:#A8FF78"/>
				<stop  offset="1" style="stop-color:#78FFD6"/>
			</linearGradient>
			<rect x="185.9" y="56.4" class="st25" width="0.8" height="5"/>
			<linearGradient id="SVGID_29_" gradientUnits="userSpaceOnUse" x1="186.7243" y1="58.9353" x2="187.5222" y2="58.9353">
				<stop  offset="4.697903e-08" style="stop-color:#A8FF78"/>
				<stop  offset="1" style="stop-color:#78FFD6"/>
			</linearGradient>
			<rect x="186.7" y="56.4" class="st26" width="0.8" height="5"/>
			<linearGradient id="SVGID_30_" gradientUnits="userSpaceOnUse" x1="187.5222" y1="58.9353" x2="188.3201" y2="58.9353">
				<stop  offset="4.697903e-08" style="stop-color:#A8FF78"/>
				<stop  offset="1" style="stop-color:#78FFD6"/>
			</linearGradient>
			<rect x="187.5" y="56.4" class="st27" width="0.8" height="5"/>
			<linearGradient id="SVGID_31_" gradientUnits="userSpaceOnUse" x1="188.3201" y1="58.9353" x2="189.1179" y2="58.9353">
				<stop  offset="4.697903e-08" style="stop-color:#A8FF78"/>
				<stop  offset="1" style="stop-color:#78FFD6"/>
			</linearGradient>
			<rect x="188.3" y="56.4" class="st28" width="0.8" height="5"/>
			<linearGradient id="SVGID_32_" gradientUnits="userSpaceOnUse" x1="189.1179" y1="58.9353" x2="189.9158" y2="58.9353">
				<stop  offset="4.697903e-08" style="stop-color:#A8FF78"/>
				<stop  offset="1" style="stop-color:#78FFD6"/>
			</linearGradient>
			<rect x="189.1" y="56.4" class="st29" width="0.8" height="5"/>
			<linearGradient id="SVGID_33_" gradientUnits="userSpaceOnUse" x1="189.9158" y1="58.9353" x2="190.7137" y2="58.9353">
				<stop  offset="4.697903e-08" style="stop-color:#A8FF78"/>
				<stop  offset="1" style="stop-color:#78FFD6"/>
			</linearGradient>
			<rect x="189.9" y="56.4" class="st30" width="0.8" height="5"/>
			<linearGradient id="SVGID_34_" gradientUnits="userSpaceOnUse" x1="190.7137" y1="58.9353" x2="191.5116" y2="58.9353">
				<stop  offset="4.697903e-08" style="stop-color:#A8FF78"/>
				<stop  offset="1" style="stop-color:#78FFD6"/>
			</linearGradient>
			<rect x="190.7" y="56.4" class="st31" width="0.8" height="5"/>
			<linearGradient id="SVGID_35_" gradientUnits="userSpaceOnUse" x1="191.5116" y1="58.9353" x2="192.3094" y2="58.9353">
				<stop  offset="4.697903e-08" style="stop-color:#A8FF78"/>
				<stop  offset="1" style="stop-color:#78FFD6"/>
			</linearGradient>
			<rect x="191.5" y="56.4" class="st32" width="0.8" height="5"/>
			<linearGradient id="SVGID_36_" gradientUnits="userSpaceOnUse" x1="192.3094" y1="58.9353" x2="193.1073" y2="58.9353">
				<stop  offset="4.697903e-08" style="stop-color:#A8FF78"/>
				<stop  offset="1" style="stop-color:#78FFD6"/>
			</linearGradient>
			<rect x="192.3" y="56.4" class="st33" width="0.8" height="5"/>
			<linearGradient id="SVGID_37_" gradientUnits="userSpaceOnUse" x1="193.1073" y1="58.9353" x2="193.9052" y2="58.9353">
				<stop  offset="4.697903e-08" style="stop-color:#A8FF78"/>
				<stop  offset="1" style="stop-color:#78FFD6"/>
			</linearGradient>
			<rect x="193.1" y="56.4" class="st34" width="0.8" height="5"/>
			<linearGradient id="SVGID_38_" gradientUnits="userSpaceOnUse" x1="193.9052" y1="58.9353" x2="194.703" y2="58.9353">
				<stop  offset="4.697903e-08" style="stop-color:#A8FF78"/>
				<stop  offset="1" style="stop-color:#78FFD6"/>
			</linearGradient>
			<rect x="193.9" y="56.4" class="st35" width="0.8" height="5"/>
			<linearGradient id="SVGID_39_" gradientUnits="userSpaceOnUse" x1="194.703" y1="58.9353" x2="195.5009" y2="58.9353">
				<stop  offset="4.697903e-08" style="stop-color:#A8FF78"/>
				<stop  offset="1" style="stop-color:#78FFD6"/>
			</linearGradient>
			<rect x="194.7" y="56.4" class="st36" width="0.8" height="5"/>
			<linearGradient id="SVGID_40_" gradientUnits="userSpaceOnUse" x1="195.5009" y1="58.9353" x2="196.2988" y2="58.9353">
				<stop  offset="4.697903e-08" style="stop-color:#A8FF78"/>
				<stop  offset="1" style="stop-color:#78FFD6"/>
			</linearGradient>
			<rect x="195.5" y="56.4" class="st37" width="0.8" height="5"/>
			<linearGradient id="SVGID_41_" gradientUnits="userSpaceOnUse" x1="196.2988" y1="58.9353" x2="197.0967" y2="58.9353">
				<stop  offset="4.697903e-08" style="stop-color:#A8FF78"/>
				<stop  offset="1" style="stop-color:#78FFD6"/>
			</linearGradient>
			<rect x="196.3" y="56.4" class="st38" width="0.8" height="5"/>
			<linearGradient id="SVGID_42_" gradientUnits="userSpaceOnUse" x1="197.0967" y1="58.9353" x2="197.8945" y2="58.9353">
				<stop  offset="4.697903e-08" style="stop-color:#A8FF78"/>
				<stop  offset="1" style="stop-color:#78FFD6"/>
			</linearGradient>
			<rect x="197.1" y="56.4" class="st39" width="0.8" height="5"/>
			<linearGradient id="SVGID_43_" gradientUnits="userSpaceOnUse" x1="197.8945" y1="58.9353" x2="198.6924" y2="58.9353">
				<stop  offset="4.697903e-08" style="stop-color:#A8FF78"/>
				<stop  offset="1" style="stop-color:#78FFD6"/>
			</linearGradient>
			<rect x="197.9" y="56.4" class="st40" width="0.8" height="5"/>
			<linearGradient id="SVGID_44_" gradientUnits="userSpaceOnUse" x1="198.6924" y1="58.9353" x2="199.4903" y2="58.9353">
				<stop  offset="4.697903e-08" style="stop-color:#A8FF78"/>
				<stop  offset="1" style="stop-color:#78FFD6"/>
			</linearGradient>
			<rect x="198.7" y="56.4" class="st41" width="0.8" height="5"/>
			<linearGradient id="SVGID_45_" gradientUnits="userSpaceOnUse" x1="199.4903" y1="58.9353" x2="200.2881" y2="58.9353">
				<stop  offset="4.697903e-08" style="stop-color:#A8FF78"/>
				<stop  offset="1" style="stop-color:#78FFD6"/>
			</linearGradient>
			<rect x="199.5" y="56.4" class="st42" width="0.8" height="5"/>
			<linearGradient id="SVGID_46_" gradientUnits="userSpaceOnUse" x1="200.2881" y1="58.9353" x2="201.086" y2="58.9353">
				<stop  offset="4.697903e-08" style="stop-color:#A8FF78"/>
				<stop  offset="1" style="stop-color:#78FFD6"/>
			</linearGradient>
			<rect x="200.3" y="56.4" class="st43" width="0.8" height="5"/>
			<linearGradient id="SVGID_47_" gradientUnits="userSpaceOnUse" x1="201.086" y1="58.9353" x2="201.8839" y2="58.9353">
				<stop  offset="4.697903e-08" style="stop-color:#A8FF78"/>
				<stop  offset="1" style="stop-color:#78FFD6"/>
			</linearGradient>
			<rect x="201.1" y="56.4" class="st44" width="0.8" height="5"/>
			<linearGradient id="SVGID_48_" gradientUnits="userSpaceOnUse" x1="201.8839" y1="58.9353" x2="202.6818" y2="58.9353">
				<stop  offset="4.697903e-08" style="stop-color:#A8FF78"/>
				<stop  offset="1" style="stop-color:#78FFD6"/>
			</linearGradient>
			<rect x="201.9" y="56.4" class="st45" width="0.8" height="5"/>
			<linearGradient id="SVGID_49_" gradientUnits="userSpaceOnUse" x1="202.6818" y1="58.9353" x2="203.4796" y2="58.9353">
				<stop  offset="4.697903e-08" style="stop-color:#A8FF78"/>
				<stop  offset="1" style="stop-color:#78FFD6"/>
			</linearGradient>
			<rect x="202.7" y="56.4" class="st46" width="0.8" height="5"/>
			<linearGradient id="SVGID_50_" gradientUnits="userSpaceOnUse" x1="203.4796" y1="58.9353" x2="204.2775" y2="58.9353">
				<stop  offset="4.697903e-08" style="stop-color:#A8FF78"/>
				<stop  offset="1" style="stop-color:#78FFD6"/>
			</linearGradient>
			<rect x="203.5" y="56.4" class="st47" width="0.8" height="5"/>
			<linearGradient id="SVGID_51_" gradientUnits="userSpaceOnUse" x1="204.2775" y1="58.9353" x2="205.0754" y2="58.9353">
				<stop  offset="4.697903e-08" style="stop-color:#A8FF78"/>
				<stop  offset="1" style="stop-color:#78FFD6"/>
			</linearGradient>
			<rect x="204.3" y="56.4" class="st48" width="0.8" height="5"/>
			<linearGradient id="SVGID_52_" gradientUnits="userSpaceOnUse" x1="205.0754" y1="58.9353" x2="205.8733" y2="58.9353">
				<stop  offset="4.697903e-08" style="stop-color:#A8FF78"/>
				<stop  offset="1" style="stop-color:#78FFD6"/>
			</linearGradient>
			<rect x="205.1" y="56.4" class="st49" width="0.8" height="5"/>
			<linearGradient id="SVGID_53_" gradientUnits="userSpaceOnUse" x1="205.8733" y1="58.9353" x2="206.6711" y2="58.9353">
				<stop  offset="4.697903e-08" style="stop-color:#A8FF78"/>
				<stop  offset="1" style="stop-color:#78FFD6"/>
			</linearGradient>
			<rect x="205.9" y="56.4" class="st50" width="0.8" height="5"/>
			<linearGradient id="SVGID_54_" gradientUnits="userSpaceOnUse" x1="206.6711" y1="58.9353" x2="207.469" y2="58.9353">
				<stop  offset="4.697903e-08" style="stop-color:#A8FF78"/>
				<stop  offset="1" style="stop-color:#78FFD6"/>
			</linearGradient>
			<rect x="206.7" y="56.4" class="st51" width="0.8" height="5"/>
			<linearGradient id="SVGID_55_" gradientUnits="userSpaceOnUse" x1="207.469" y1="58.9353" x2="208.2669" y2="58.9353">
				<stop  offset="4.697903e-08" style="stop-color:#A8FF78"/>
				<stop  offset="1" style="stop-color:#78FFD6"/>
			</linearGradient>
			<rect x="207.5" y="56.4" class="st52" width="0.8" height="5"/>
			<linearGradient id="SVGID_56_" gradientUnits="userSpaceOnUse" x1="208.2669" y1="58.9353" x2="209.0647" y2="58.9353">
				<stop  offset="4.697903e-08" style="stop-color:#A8FF78"/>
				<stop  offset="1" style="stop-color:#78FFD6"/>
			</linearGradient>
			<rect x="208.3" y="56.4" class="st53" width="0.8" height="5"/>
			<linearGradient id="SVGID_57_" gradientUnits="userSpaceOnUse" x1="209.0647" y1="58.9353" x2="209.8626" y2="58.9353">
				<stop  offset="4.697903e-08" style="stop-color:#A8FF78"/>
				<stop  offset="1" style="stop-color:#78FFD6"/>
			</linearGradient>
			<rect x="209.1" y="56.4" class="st54" width="0.8" height="5"/>
			<linearGradient id="SVGID_58_" gradientUnits="userSpaceOnUse" x1="209.8626" y1="58.9353" x2="210.6605" y2="58.9353">
				<stop  offset="4.697903e-08" style="stop-color:#A8FF78"/>
				<stop  offset="1" style="stop-color:#78FFD6"/>
			</linearGradient>
			<rect x="209.9" y="56.4" class="st55" width="0.8" height="5"/>
			<linearGradient id="SVGID_59_" gradientUnits="userSpaceOnUse" x1="210.6605" y1="58.9353" x2="211.4584" y2="58.9353">
				<stop  offset="4.697903e-08" style="stop-color:#A8FF78"/>
				<stop  offset="1" style="stop-color:#78FFD6"/>
			</linearGradient>
			<rect x="210.7" y="56.4" class="st56" width="0.8" height="5"/>
			<linearGradient id="SVGID_60_" gradientUnits="userSpaceOnUse" x1="211.4584" y1="58.9353" x2="212.2562" y2="58.9353">
				<stop  offset="4.697903e-08" style="stop-color:#A8FF78"/>
				<stop  offset="1" style="stop-color:#78FFD6"/>
			</linearGradient>
			<rect x="211.5" y="56.4" class="st57" width="0.8" height="5"/>
			<linearGradient id="SVGID_61_" gradientUnits="userSpaceOnUse" x1="212.2562" y1="58.9353" x2="213.0541" y2="58.9353">
				<stop  offset="4.697903e-08" style="stop-color:#A8FF78"/>
				<stop  offset="1" style="stop-color:#78FFD6"/>
			</linearGradient>
			<rect x="212.3" y="56.4" class="st58" width="0.8" height="5"/>
			<linearGradient id="SVGID_62_" gradientUnits="userSpaceOnUse" x1="213.0541" y1="58.9353" x2="213.852" y2="58.9353">
				<stop  offset="4.697903e-08" style="stop-color:#A8FF78"/>
				<stop  offset="1" style="stop-color:#78FFD6"/>
			</linearGradient>
			<rect x="213.1" y="56.4" class="st59" width="0.8" height="5"/>
			<linearGradient id="SVGID_63_" gradientUnits="userSpaceOnUse" x1="213.852" y1="58.9353" x2="214.6499" y2="58.9353">
				<stop  offset="4.697903e-08" style="stop-color:#A8FF78"/>
				<stop  offset="1" style="stop-color:#78FFD6"/>
			</linearGradient>
			<rect x="213.9" y="56.4" class="st60" width="0.8" height="5"/>
			<linearGradient id="SVGID_64_" gradientUnits="userSpaceOnUse" x1="214.6499" y1="58.9353" x2="215.4477" y2="58.9353">
				<stop  offset="4.697903e-08" style="stop-color:#A8FF78"/>
				<stop  offset="1" style="stop-color:#78FFD6"/>
			</linearGradient>
			<rect x="214.6" y="56.4" class="st61" width="0.8" height="5"/>
			<linearGradient id="SVGID_65_" gradientUnits="userSpaceOnUse" x1="215.4477" y1="58.9353" x2="216.2456" y2="58.9353">
				<stop  offset="4.697903e-08" style="stop-color:#A8FF78"/>
				<stop  offset="1" style="stop-color:#78FFD6"/>
			</linearGradient>
			<rect x="215.4" y="56.4" class="st62" width="0.8" height="5"/>
			<linearGradient id="SVGID_66_" gradientUnits="userSpaceOnUse" x1="216.2456" y1="58.9353" x2="217.0435" y2="58.9353">
				<stop  offset="4.697903e-08" style="stop-color:#A8FF78"/>
				<stop  offset="1" style="stop-color:#78FFD6"/>
			</linearGradient>
			<rect x="216.2" y="56.4" class="st63" width="0.8" height="5"/>
			<linearGradient id="SVGID_67_" gradientUnits="userSpaceOnUse" x1="217.0435" y1="58.9353" x2="217.8413" y2="58.9353">
				<stop  offset="4.697903e-08" style="stop-color:#A8FF78"/>
				<stop  offset="1" style="stop-color:#78FFD6"/>
			</linearGradient>
			<rect x="217" y="56.4" class="st64" width="0.8" height="5"/>
			<linearGradient id="SVGID_68_" gradientUnits="userSpaceOnUse" x1="217.8413" y1="58.9353" x2="218.6392" y2="58.9353">
				<stop  offset="4.697903e-08" style="stop-color:#A8FF78"/>
				<stop  offset="1" style="stop-color:#78FFD6"/>
			</linearGradient>
			<rect x="217.8" y="56.4" class="st65" width="0.8" height="5"/>
			<linearGradient id="SVGID_69_" gradientUnits="userSpaceOnUse" x1="218.6392" y1="58.9353" x2="219.4371" y2="58.9353">
				<stop  offset="4.697903e-08" style="stop-color:#A8FF78"/>
				<stop  offset="1" style="stop-color:#78FFD6"/>
			</linearGradient>
			<rect x="218.6" y="56.4" class="st66" width="0.8" height="5"/>
			<linearGradient id="SVGID_70_" gradientUnits="userSpaceOnUse" x1="219.4371" y1="58.9353" x2="220.235" y2="58.9353">
				<stop  offset="4.697903e-08" style="stop-color:#A8FF78"/>
				<stop  offset="1" style="stop-color:#78FFD6"/>
			</linearGradient>
			<rect x="219.4" y="56.4" class="st67" width="0.8" height="5"/>
			<linearGradient id="SVGID_71_" gradientUnits="userSpaceOnUse" x1="220.235" y1="58.9353" x2="221.0328" y2="58.9353">
				<stop  offset="4.697903e-08" style="stop-color:#A8FF78"/>
				<stop  offset="1" style="stop-color:#78FFD6"/>
			</linearGradient>
			<rect x="220.2" y="56.4" class="st68" width="0.8" height="5"/>
			<linearGradient id="SVGID_72_" gradientUnits="userSpaceOnUse" x1="221.0328" y1="58.9353" x2="221.8307" y2="58.9353">
				<stop  offset="4.697903e-08" style="stop-color:#A8FF78"/>
				<stop  offset="1" style="stop-color:#78FFD6"/>
			</linearGradient>
			<rect x="221" y="56.4" class="st69" width="0.8" height="5"/>
			<linearGradient id="SVGID_73_" gradientUnits="userSpaceOnUse" x1="221.8307" y1="58.9353" x2="222.6286" y2="58.9353">
				<stop  offset="4.697903e-08" style="stop-color:#A8FF78"/>
				<stop  offset="1" style="stop-color:#78FFD6"/>
			</linearGradient>
			<rect x="221.8" y="56.4" class="st70" width="0.8" height="5"/>
			<linearGradient id="SVGID_74_" gradientUnits="userSpaceOnUse" x1="222.6286" y1="58.9353" x2="223.4265" y2="58.9353">
				<stop  offset="4.697903e-08" style="stop-color:#A8FF78"/>
				<stop  offset="1" style="stop-color:#78FFD6"/>
			</linearGradient>
			<rect x="222.6" y="56.4" class="st71" width="0.8" height="5"/>
			<linearGradient id="SVGID_75_" gradientUnits="userSpaceOnUse" x1="223.4265" y1="58.9353" x2="224.2243" y2="58.9353">
				<stop  offset="4.697903e-08" style="stop-color:#A8FF78"/>
				<stop  offset="1" style="stop-color:#78FFD6"/>
			</linearGradient>
			<rect x="223.4" y="56.4" class="st72" width="0.8" height="5"/>
			<linearGradient id="SVGID_76_" gradientUnits="userSpaceOnUse" x1="224.2243" y1="58.9353" x2="225.0222" y2="58.9353">
				<stop  offset="4.697903e-08" style="stop-color:#A8FF78"/>
				<stop  offset="1" style="stop-color:#78FFD6"/>
			</linearGradient>
			<rect x="224.2" y="56.4" class="st73" width="0.8" height="5"/>
			<linearGradient id="SVGID_77_" gradientUnits="userSpaceOnUse" x1="225.0222" y1="58.9353" x2="225.8201" y2="58.9353">
				<stop  offset="4.697903e-08" style="stop-color:#A8FF78"/>
				<stop  offset="1" style="stop-color:#78FFD6"/>
			</linearGradient>
			<rect x="225" y="56.4" class="st74" width="0.8" height="5"/>
			<linearGradient id="SVGID_78_" gradientUnits="userSpaceOnUse" x1="225.8201" y1="58.9353" x2="226.6179" y2="58.9353">
				<stop  offset="4.697903e-08" style="stop-color:#A8FF78"/>
				<stop  offset="1" style="stop-color:#78FFD6"/>
			</linearGradient>
			<rect x="225.8" y="56.4" class="st75" width="0.8" height="5"/>
			<linearGradient id="SVGID_79_" gradientUnits="userSpaceOnUse" x1="226.6179" y1="58.9353" x2="227.4158" y2="58.9353">
				<stop  offset="4.697903e-08" style="stop-color:#A8FF78"/>
				<stop  offset="1" style="stop-color:#78FFD6"/>
			</linearGradient>
			<rect x="226.6" y="56.4" class="st76" width="0.8" height="5"/>
			<linearGradient id="SVGID_80_" gradientUnits="userSpaceOnUse" x1="227.4158" y1="58.9353" x2="228.2137" y2="58.9353">
				<stop  offset="4.697903e-08" style="stop-color:#A8FF78"/>
				<stop  offset="1" style="stop-color:#78FFD6"/>
			</linearGradient>
			<rect x="227.4" y="56.4" class="st77" width="0.8" height="5"/>
			<linearGradient id="SVGID_81_" gradientUnits="userSpaceOnUse" x1="228.2137" y1="58.9353" x2="229.0116" y2="58.9353">
				<stop  offset="4.697903e-08" style="stop-color:#A8FF78"/>
				<stop  offset="1" style="stop-color:#78FFD6"/>
			</linearGradient>
			<rect x="228.2" y="56.4" class="st78" width="0.8" height="5"/>
			<linearGradient id="SVGID_82_" gradientUnits="userSpaceOnUse" x1="229.0116" y1="58.9353" x2="229.8094" y2="58.9353">
				<stop  offset="4.697903e-08" style="stop-color:#A8FF78"/>
				<stop  offset="1" style="stop-color:#78FFD6"/>
			</linearGradient>
			<rect x="229" y="56.4" class="st79" width="0.8" height="5"/>
			<linearGradient id="SVGID_83_" gradientUnits="userSpaceOnUse" x1="229.8094" y1="58.9353" x2="230.6073" y2="58.9353">
				<stop  offset="4.697903e-08" style="stop-color:#A8FF78"/>
				<stop  offset="1" style="stop-color:#78FFD6"/>
			</linearGradient>
			<rect x="229.8" y="56.4" class="st80" width="0.8" height="5"/>
			<linearGradient id="SVGID_84_" gradientUnits="userSpaceOnUse" x1="230.6073" y1="58.9353" x2="231.4052" y2="58.9353">
				<stop  offset="4.697903e-08" style="stop-color:#A8FF78"/>
				<stop  offset="1" style="stop-color:#78FFD6"/>
			</linearGradient>
			<rect x="230.6" y="56.4" class="st81" width="0.8" height="5"/>
			<linearGradient id="SVGID_85_" gradientUnits="userSpaceOnUse" x1="231.4052" y1="58.9353" x2="232.203" y2="58.9353">
				<stop  offset="4.697903e-08" style="stop-color:#A8FF78"/>
				<stop  offset="1" style="stop-color:#78FFD6"/>
			</linearGradient>
			<rect x="231.4" y="56.4" class="st82" width="0.8" height="5"/>
			<linearGradient id="SVGID_86_" gradientUnits="userSpaceOnUse" x1="232.203" y1="58.9353" x2="233.0009" y2="58.9353">
				<stop  offset="4.697903e-08" style="stop-color:#A8FF78"/>
				<stop  offset="1" style="stop-color:#78FFD6"/>
			</linearGradient>
			<rect x="232.2" y="56.4" class="st83" width="0.8" height="5"/>
			<linearGradient id="SVGID_87_" gradientUnits="userSpaceOnUse" x1="233.0009" y1="58.9353" x2="233.7988" y2="58.9353">
				<stop  offset="4.697903e-08" style="stop-color:#A8FF78"/>
				<stop  offset="1" style="stop-color:#78FFD6"/>
			</linearGradient>
			<rect x="233" y="56.4" class="st84" width="0.8" height="5"/>
			<linearGradient id="SVGID_88_" gradientUnits="userSpaceOnUse" x1="233.7988" y1="58.9353" x2="234.5967" y2="58.9353">
				<stop  offset="4.697903e-08" style="stop-color:#A8FF78"/>
				<stop  offset="1" style="stop-color:#78FFD6"/>
			</linearGradient>
			<rect x="233.8" y="56.4" class="st85" width="0.8" height="5"/>
			<linearGradient id="SVGID_89_" gradientUnits="userSpaceOnUse" x1="234.5967" y1="58.9353" x2="235.3945" y2="58.9353">
				<stop  offset="4.697903e-08" style="stop-color:#A8FF78"/>
				<stop  offset="1" style="stop-color:#78FFD6"/>
			</linearGradient>
			<rect x="234.6" y="56.4" class="st86" width="0.8" height="5"/>
			<linearGradient id="SVGID_90_" gradientUnits="userSpaceOnUse" x1="235.3945" y1="58.9353" x2="236.1924" y2="58.9353">
				<stop  offset="4.697903e-08" style="stop-color:#A8FF78"/>
				<stop  offset="1" style="stop-color:#78FFD6"/>
			</linearGradient>
			<rect x="235.4" y="56.4" class="st87" width="0.8" height="5"/>
			<linearGradient id="SVGID_91_" gradientUnits="userSpaceOnUse" x1="236.1924" y1="58.9353" x2="236.9903" y2="58.9353">
				<stop  offset="4.697903e-08" style="stop-color:#A8FF78"/>
				<stop  offset="1" style="stop-color:#78FFD6"/>
			</linearGradient>
			<rect x="236.2" y="56.4" class="st88" width="0.8" height="5"/>
			<linearGradient id="SVGID_92_" gradientUnits="userSpaceOnUse" x1="236.9903" y1="58.9353" x2="237.7881" y2="58.9353">
				<stop  offset="4.697903e-08" style="stop-color:#A8FF78"/>
				<stop  offset="1" style="stop-color:#78FFD6"/>
			</linearGradient>
			<rect x="237" y="56.4" class="st89" width="0.8" height="5"/>
			<linearGradient id="SVGID_93_" gradientUnits="userSpaceOnUse" x1="237.7881" y1="58.9353" x2="238.586" y2="58.9353">
				<stop  offset="4.697903e-08" style="stop-color:#A8FF78"/>
				<stop  offset="1" style="stop-color:#78FFD6"/>
			</linearGradient>
			<rect x="237.8" y="56.4" class="st90" width="0.8" height="5"/>
			<linearGradient id="SVGID_94_" gradientUnits="userSpaceOnUse" x1="238.586" y1="58.9353" x2="239.3839" y2="58.9353">
				<stop  offset="4.697903e-08" style="stop-color:#A8FF78"/>
				<stop  offset="1" style="stop-color:#78FFD6"/>
			</linearGradient>
			<rect x="238.6" y="56.4" class="st91" width="0.8" height="5"/>
			<linearGradient id="SVGID_95_" gradientUnits="userSpaceOnUse" x1="239.3839" y1="58.9353" x2="240.1818" y2="58.9353">
				<stop  offset="4.697903e-08" style="stop-color:#A8FF78"/>
				<stop  offset="1" style="stop-color:#78FFD6"/>
			</linearGradient>
			<rect x="239.4" y="56.4" class="st92" width="0.8" height="5"/>
			<linearGradient id="SVGID_96_" gradientUnits="userSpaceOnUse" x1="240.1818" y1="58.9353" x2="240.9796" y2="58.9353">
				<stop  offset="4.697903e-08" style="stop-color:#A8FF78"/>
				<stop  offset="1" style="stop-color:#78FFD6"/>
			</linearGradient>
			<rect x="240.2" y="56.4" class="st93" width="0.8" height="5"/>
			<linearGradient id="SVGID_97_" gradientUnits="userSpaceOnUse" x1="240.9796" y1="58.9353" x2="241.7775" y2="58.9353">
				<stop  offset="4.697903e-08" style="stop-color:#A8FF78"/>
				<stop  offset="1" style="stop-color:#78FFD6"/>
			</linearGradient>
			<rect x="241" y="56.4" class="st94" width="0.8" height="5"/>
			<linearGradient id="SVGID_98_" gradientUnits="userSpaceOnUse" x1="241.7775" y1="58.9353" x2="242.5754" y2="58.9353">
				<stop  offset="4.697903e-08" style="stop-color:#A8FF78"/>
				<stop  offset="1" style="stop-color:#78FFD6"/>
			</linearGradient>
			<rect x="241.8" y="56.4" class="st95" width="0.8" height="5"/>
			<linearGradient id="SVGID_99_" gradientUnits="userSpaceOnUse" x1="242.5754" y1="58.9353" x2="243.3733" y2="58.9353">
				<stop  offset="4.697903e-08" style="stop-color:#A8FF78"/>
				<stop  offset="1" style="stop-color:#78FFD6"/>
			</linearGradient>
			<rect x="242.6" y="56.4" class="st96" width="0.8" height="5"/>
			<linearGradient id="SVGID_100_" gradientUnits="userSpaceOnUse" x1="243.3733" y1="58.9353" x2="244.1711" y2="58.9353">
				<stop  offset="4.697903e-08" style="stop-color:#A8FF78"/>
				<stop  offset="1" style="stop-color:#78FFD6"/>
			</linearGradient>
			<rect x="243.4" y="56.4" class="st97" width="0.8" height="5"/>
			<linearGradient id="SVGID_101_" gradientUnits="userSpaceOnUse" x1="244.1711" y1="58.9353" x2="244.1711" y2="58.9353">
				<stop  offset="4.697903e-08" style="stop-color:#A8FF78"/>
				<stop  offset="1" style="stop-color:#78FFD6"/>
			</linearGradient>
			<path class="st98" d="M244.2,61.4v-5V61.4z"/>
		</g>
	</g>
	
		<linearGradient id="SVGID_102_" gradientUnits="userSpaceOnUse" x1="68.1366" y1="-117.4211" x2="89.734" y2="-117.4211" gradientTransform="matrix(0 1 -1 0 136 -20)">
		<stop  offset="4.697903e-08" style="stop-color:#A8FF78"/>
		<stop  offset="1" style="stop-color:#78FFD6"/>
	</linearGradient>
	<path class="st99" d="M261.7,56.3l-13.5-7.8c-2-1.2-4.5,0.3-4.5,2.6v15.6c0,2.3,2.5,3.8,4.5,2.6l13.5-7.8
		C263.7,60.4,263.7,57.5,261.7,56.3z"/>
</g>
</svg>
