<?xml version="1.0" encoding="utf-8"?>
<!-- Generator: Adobe Illustrator 21.0.2, SVG Export Plug-In . SVG Version: 6.00 Build 0)  -->
<svg version="1.1" id="Livello_1" xmlns="http://www.w3.org/2000/svg" xmlns:xlink="http://www.w3.org/1999/xlink" x="0px" y="0px"
	 viewBox="0 0 100 65" style="enable-background:new 0 0 100 65;" xml:space="preserve">
<style type="text/css">
	.st0{fill:url(#SVGID_1_);}
	.st1{enable-background:new    ;}
	.st2{fill:#FFFFFF;}
</style>
<g>
	
		<linearGradient id="SVGID_1_" gradientUnits="userSpaceOnUse" x1="50" y1="67.817" x2="50" y2="25.7946" gradientTransform="matrix(1 0 0 -1 0 68)">
		<stop  offset="4.697903e-08" style="stop-color:#A8FF78"/>
		<stop  offset="1" style="stop-color:#78FFD6"/>
	</linearGradient>
	<path class="st0" d="M49.5,42.2c-7.4-0.5-14.6-3.5-20.3-9.1s-8.7-12.9-9.1-20.3c7.4,0.5,14.6,3.5,20.3,9.1c0.5,0.5,1,1,1.4,1.5
		c4.7,5.3,7.3,11.9,7.7,18.6C49.5,42.1,49.5,42.2,49.5,42.2z M50.5,42.2c7.4-0.5,14.6-3.5,20.3-9.1s8.7-12.9,9.1-20.3
		c-7.4,0.5-14.6,3.5-20.3,9.1c-0.5,0.5-1,1-1.4,1.5c-4.7,5.3-7.3,11.9-7.7,18.6C50.5,42.1,50.5,42.2,50.5,42.2z M42.6,22.7
		c3.9,4.4,6.4,9.8,7.4,15.5c1-5.8,3.5-11.1,7.4-15.5c0.1-0.2,0.3-0.3,0.4-0.5c0-0.4,0-0.9,0-1.3c0-8-3-15.2-7.9-20.8
		C45.1,5.7,42.1,13,42.1,21c0,0.4,0,0.9,0,1.3C42.3,22.4,42.4,22.6,42.6,22.7z"/>
	<g class="st1">
		<path class="st2" d="M21.8,50.2l-4.9,14.5h-1.6L11,52.3L6.8,64.7H5.2L0.3,50.2h1.6L6,62.7l4.3-12.5h1.4l4.3,12.6l4.3-12.6H21.8z"
			/>
		<path class="st2" d="M33,59.7h-9.1c0.1,1.1,0.5,2.1,1.3,2.8c0.8,0.7,1.8,1,3,1c0.7,0,1.3-0.1,1.9-0.4c0.6-0.2,1.1-0.6,1.5-1.1
			l0.8,1c-0.5,0.6-1.1,1-1.8,1.3c-0.7,0.3-1.5,0.5-2.4,0.5c-1.1,0-2.1-0.2-3-0.7c-0.9-0.5-1.5-1.1-2-2c-0.5-0.8-0.7-1.8-0.7-2.9
			c0-1.1,0.2-2,0.7-2.9c0.5-0.8,1.1-1.5,1.9-2c0.8-0.5,1.7-0.7,2.7-0.7c1,0,1.9,0.2,2.7,0.7c0.8,0.5,1.4,1.1,1.9,2
			c0.5,0.8,0.7,1.8,0.7,2.9L33,59.7z M25.1,56c-0.7,0.7-1.1,1.5-1.2,2.6h7.7c-0.1-1.1-0.5-2-1.2-2.6c-0.7-0.7-1.6-1-2.7-1
			C26.7,55,25.8,55.3,25.1,56z"/>
		<path class="st2" d="M45.5,59.7h-9.1c0.1,1.1,0.5,2.1,1.3,2.8c0.8,0.7,1.8,1,3,1c0.7,0,1.3-0.1,1.9-0.4c0.6-0.2,1.1-0.6,1.5-1.1
			l0.8,1c-0.5,0.6-1.1,1-1.8,1.3c-0.7,0.3-1.5,0.5-2.4,0.5c-1.1,0-2.1-0.2-3-0.7c-0.9-0.5-1.5-1.1-2-2c-0.5-0.8-0.7-1.8-0.7-2.9
			c0-1.1,0.2-2,0.7-2.9c0.5-0.8,1.1-1.5,1.9-2c0.8-0.5,1.7-0.7,2.7-0.7c1,0,1.9,0.2,2.7,0.7c0.8,0.5,1.4,1.1,1.9,2
			c0.5,0.8,0.7,1.8,0.7,2.9L45.5,59.7z M37.6,56c-0.7,0.7-1.1,1.5-1.2,2.6h7.7c-0.1-1.1-0.5-2-1.2-2.6c-0.7-0.7-1.6-1-2.7-1
			C39.2,55,38.3,55.3,37.6,56z"/>
		<path class="st2" d="M50.4,51.5v5.7h7.5v1.3h-7.5v6.2h-1.5V50.2h10v1.3H50.4z"/>
		<path class="st2" d="M68.4,54.8c0.8,0.7,1.1,1.8,1.1,3.2v6.8h-1.4V63c-0.3,0.6-0.8,1-1.5,1.3c-0.6,0.3-1.4,0.5-2.3,0.5
			c-1.2,0-2.2-0.3-2.9-0.9c-0.7-0.6-1.1-1.4-1.1-2.3c0-0.9,0.3-1.7,1-2.2c0.7-0.6,1.7-0.9,3.2-0.9h3.5v-0.7c0-0.9-0.3-1.7-0.8-2.2
			C66.7,55.2,66,55,65,55c-0.7,0-1.4,0.1-2,0.3c-0.6,0.2-1.2,0.5-1.6,0.9l-0.7-1.1c0.6-0.5,1.2-0.8,2-1.1c0.8-0.3,1.6-0.4,2.5-0.4
			C66.5,53.7,67.6,54.1,68.4,54.8z M66.7,63.1c0.6-0.4,1-0.9,1.3-1.7v-1.8h-3.4c-1.9,0-2.8,0.7-2.8,2c0,0.6,0.2,1.1,0.7,1.5
			c0.5,0.4,1.2,0.6,2,0.6C65.4,63.7,66.1,63.5,66.7,63.1z"/>
		<path class="st2" d="M76.5,54.3c0.7-0.4,1.5-0.6,2.5-0.6v1.4l-0.4,0c-1.1,0-2,0.4-2.7,1.1c-0.7,0.7-1,1.7-1,3v5.6h-1.5V53.8H75
			v2.1C75.3,55.2,75.8,54.6,76.5,54.3z"/>
		<path class="st2" d="M98.6,54.9c0.8,0.8,1.2,2,1.2,3.5v6.3h-1.5v-6.2c0-1.1-0.3-2-0.8-2.6c-0.5-0.6-1.3-0.9-2.3-0.9
			c-1.1,0-2,0.4-2.7,1c-0.7,0.7-1,1.7-1,2.9v5.7H90v-6.2c0-1.1-0.3-2-0.8-2.6c-0.5-0.6-1.3-0.9-2.3-0.9c-1.1,0-2,0.4-2.7,1
			c-0.7,0.7-1,1.7-1,2.9v5.7h-1.5V53.8h1.4v2c0.4-0.7,0.9-1.2,1.6-1.5c0.7-0.4,1.5-0.5,2.4-0.5c0.9,0,1.7,0.2,2.4,0.6
			c0.7,0.4,1.2,1,1.5,1.7c0.4-0.7,1-1.3,1.7-1.7c0.8-0.4,1.6-0.6,2.6-0.6C96.7,53.7,97.8,54.1,98.6,54.9z"/>
	</g>
</g>
</svg>
