<?xml version="1.0" encoding="utf-8"?>
<!-- Generator: Adobe Illustrator 21.0.2, SVG Export Plug-In . SVG Version: 6.00 Build 0)  -->
<svg version="1.1" id="Livello_1" xmlns="http://www.w3.org/2000/svg" xmlns:xlink="http://www.w3.org/1999/xlink" x="0px" y="0px"
	 viewBox="0 0 100 100" style="enable-background:new 0 0 100 100;" xml:space="preserve">
<style type="text/css">
	.st0{fill:#FFFFFF;}
</style>
<g>
	<g>
		<g>
			<path class="st0" d="M17.7,30.7c-1,0-1.9,0.8-1.9,1.9c0,1,0.8,1.9,1.9,1.9s1.9-0.8,1.9-1.9C19.6,31.5,18.8,30.7,17.7,30.7z"/>
		</g>
	</g>
	<g>
		<g>
			<path class="st0" d="M17.7,16C8.6,16,1.2,23.4,1.2,32.6c0,4.5,2.5,10.4,7.3,17.6c3.5,5.1,6.9,9,7.1,9.1c0.6,0.6,1.3,1,2.2,1
				c0.8,0,1.6-0.4,2.2-1c0.1-0.2,3.6-4,7.1-9.1c4.9-7.1,7.3-13,7.3-17.6C34.3,23.4,26.9,16,17.7,16z M17.7,40.3
				c-4.2,0-7.7-3.5-7.7-7.7c0-4.2,3.5-7.7,7.7-7.7c4.2,0,7.7,3.5,7.7,7.7C25.4,36.8,22,40.3,17.7,40.3z"/>
		</g>
	</g>
	<g>
		<g>
			<path class="st0" d="M69.6,78.8h-7.2c-5.1,0-9.3-4.2-9.3-9.3c0-8.3-6.8-15.1-15.1-15.1h-7c-1.6,2.3-3.2,4.3-4.4,5.8H38
				c5.1,0,9.3,4.2,9.3,9.3c0,8.3,6.8,15.1,15.1,15.1H74C72.8,83.1,71.2,81.1,69.6,78.8z"/>
		</g>
	</g>
	<g>
		<g>
			<path class="st0" d="M82.9,55c-1,0-1.9,0.8-1.9,1.9s0.8,1.9,1.9,1.9c1,0,1.9-0.8,1.9-1.9C84.8,55.9,84,55,82.9,55z"/>
		</g>
	</g>
	<g>
		<g>
			<path class="st0" d="M82.9,40.4c-9.1,0-16.6,7.4-16.6,16.6c0,4.5,2.5,10.4,7.3,17.6c3.5,5.1,6.9,9,7.1,9.1c0.6,0.6,1.3,1,2.2,1
				c0.8,0,1.6-0.4,2.2-1c0.1-0.2,3.6-4,7.1-9.1c4.9-7.1,7.3-13,7.3-17.6C99.5,47.8,92.1,40.4,82.9,40.4z M82.9,64.6
				c-4.2,0-7.7-3.5-7.7-7.7c0-4.2,3.5-7.7,7.7-7.7c4.2,0,7.7,3.5,7.7,7.7S87.2,64.6,82.9,64.6z"/>
		</g>
	</g>
	<g>
	</g>
	<g>
	</g>
	<g>
	</g>
	<g>
	</g>
	<g>
	</g>
	<g>
	</g>
	<g>
	</g>
	<g>
	</g>
	<g>
	</g>
	<g>
	</g>
	<g>
	</g>
	<g>
	</g>
	<g>
	</g>
	<g>
	</g>
	<g>
	</g>
</g>
</svg>
