<?xml version="1.0" encoding="utf-8"?>
<!-- Generator: Adobe Illustrator 21.0.2, SVG Export Plug-In . SVG Version: 6.00 Build 0)  -->
<svg version="1.1" id="Livello_1" xmlns="http://www.w3.org/2000/svg" xmlns:xlink="http://www.w3.org/1999/xlink" x="0px" y="0px"
	 viewBox="0 0 100 100" style="enable-background:new 0 0 100 100;" xml:space="preserve">
<style type="text/css">
	.st0{fill:#FFFFFF;}
</style>
<g>
	<g>
		<g>
			<path class="st0" d="M69.5,29.2c0-0.8-0.3-1.4-0.9-1.8c-0.3-0.2-0.9-0.5-1.7-0.7v5.1c1.1,0,1.9-0.5,2.3-1.2
				C69.4,30.2,69.5,29.7,69.5,29.2z"/>
			<path class="st0" d="M66,20.1c-0.9,0-1.5,0.3-1.8,0.8c-0.4,0.5-0.5,1-0.5,1.5c0,0.6,0.2,1.1,0.6,1.5c0.4,0.4,1,0.6,1.7,0.8
				L66,20.1L66,20.1z"/>
			<path class="st0" d="M66.4,37.4c6.2,0,11.2-5,11.2-11.2s-5-11.2-11.2-11.2s-11.2,5-11.2,11.2C55.3,32.4,60.3,37.4,66.4,37.4z
				 M62.9,25.1c-0.7-0.6-1-1.5-1-2.6c0-1,0.4-1.9,1.1-2.7c0.7-0.8,1.7-1.2,3-1.2v-1.3h0.9v1.3c1.3,0.1,2.3,0.5,3,1.1
				c0.7,0.7,1,1.6,1.1,2.7h-1.7c0-0.5-0.2-0.9-0.4-1.3c-0.4-0.7-1.1-1-2-1v4.7c1.5,0.4,2.5,0.8,3.1,1.2c0.9,0.6,1.3,1.5,1.3,2.7
				c0,1.7-0.6,2.9-1.7,3.7c-0.6,0.4-1.5,0.7-2.7,0.8v1.9H66v-1.9c-1.9-0.1-3.2-0.8-3.8-2c-0.4-0.7-0.6-1.5-0.6-2.7h1.7
				c0.1,0.9,0.2,1.5,0.4,1.9c0.4,0.7,1.2,1.1,2.3,1.2v-5.3C64.6,26.2,63.5,25.7,62.9,25.1z"/>
			<path class="st0" d="M47.3,10.7c0-0.6-0.2-1.1-0.7-1.4c-0.3-0.2-0.7-0.4-1.3-0.5v3.8c0.8,0,1.4-0.3,1.7-0.9
				C47.2,11.4,47.3,11.1,47.3,10.7z"/>
			<path class="st0" d="M44.7,3.8c-0.6,0-1.1,0.2-1.4,0.6c-0.3,0.4-0.4,0.7-0.4,1.1c0,0.5,0.2,0.9,0.5,1.1c0.3,0.3,0.8,0.5,1.3,0.6
				L44.7,3.8L44.7,3.8z"/>
			<path class="st0" d="M45,16.8c4.6,0,8.4-3.8,8.4-8.4S49.6,0.1,45,0.1s-8.4,3.7-8.4,8.4C36.6,13.1,40.4,16.8,45,16.8z M42.3,7.6
				c-0.5-0.5-0.8-1.1-0.8-1.9c0-0.7,0.3-1.4,0.8-2c0.5-0.6,1.3-0.9,2.3-0.9v-1h0.7v1c1,0.1,1.7,0.4,2.2,0.9c0.5,0.5,0.8,1.2,0.8,2
				h-1.3c0-0.4-0.1-0.7-0.3-1c-0.3-0.5-0.8-0.7-1.5-0.8v3.5c1.1,0.3,1.9,0.6,2.3,0.9c0.7,0.5,1,1.1,1,2c0,1.3-0.4,2.2-1.3,2.8
				c-0.5,0.3-1.1,0.5-2,0.6v1.4h-0.7v-1.4c-1.4-0.1-2.4-0.6-2.9-1.5c-0.3-0.5-0.4-1.2-0.4-2h1.3c0,0.7,0.1,1.2,0.3,1.5
				c0.3,0.5,0.9,0.9,1.7,0.9v-4C43.6,8.4,42.8,8.1,42.3,7.6z"/>
			<path class="st0" d="M39.3,47.9c-1.9-0.3-3.2-1.1-3.9-2.4c-0.5-0.8-0.7-2-0.7-3.4h2.2c0.1,1.1,0.3,2,0.5,2.5
				c0.5,0.9,1.5,1.5,2.9,1.6v-6.8c-1.8-0.3-3.2-0.9-4-1.7c-0.9-0.8-1.3-1.9-1.3-3.3c0-1.3,0.5-2.4,1.4-3.4c0.9-1,2.2-1.5,3.9-1.6
				v-1.7h1.2v1.6c1.7,0.1,2.9,0.6,3.8,1.5c0.9,0.9,1.4,2,1.4,3.4h-2.2c-0.1-0.6-0.2-1.2-0.5-1.6c-0.5-0.8-1.4-1.3-2.5-1.3v6.1
				c1.9,0.5,3.3,1.1,4,1.5c1.1,0.8,1.7,2,1.7,3.5c0,2.2-0.7,3.8-2.2,4.7c-0.6,0.4-1.5,0.6-2.4,0.8c2.9,0.1,5.8,0.6,8.5,1.4
				c2.6-2.6,4.2-6.2,4.2-10.2c0-8-6.5-14.4-14.4-14.4c-8,0-14.4,6.5-14.4,14.4c0,4.1,1.7,7.8,4.5,10.5
				C33.6,48.6,36.4,48.1,39.3,47.9z"/>
			<path class="st0" d="M38.1,36.1c0.5,0.5,1.3,0.8,2.2,1v-5.9c-1.1,0-1.9,0.4-2.4,1c-0.5,0.6-0.7,1.3-0.7,2
				C37.2,34.9,37.5,35.6,38.1,36.1z"/>
			<path class="st0" d="M43.7,40.5c-0.4-0.3-1.2-0.6-2.2-0.9v6.6c1.4-0.1,2.4-0.6,3-1.6c0.3-0.5,0.4-1.1,0.4-1.7
				C44.9,41.9,44.5,41.1,43.7,40.5z"/>
			<path class="st0" d="M90.4,77c1.8-1.8,1.9-5.2,1.6-9.8c-2.1-0.1-5.1,0.2-6.2,0c-2.6-5.2-6.4-9.3-11.8-11.8
				c0.2-3.4,0.6-6.5,2.6-8.2c-4.8-0.3-8.9,2.9-11.4,5.9c-2.3-2.4-5.8-4.3-9.8-5.7l-2.5,4.5c-7.5-2.6-15.7-2.6-23.1,0.1l-3.3-4.4
				c0,0,0,0,0,0c-5.1,1.7-9.9,4.4-13.5,8.2c-2.4-0.2-2.1-5,1-4.2c-5-3.4-7.8,6-2.9,7.2c-4.1,5.8-4.5,18.3,1,22.9
				c0.8,6.9,2,13.3,5.4,17.7h11C28,97,27.7,94.6,27.9,92c6.7,1.5,14.6,2,22.5,1.3c1.2,2,2.4,4.1,3.9,5.9h10.9
				c-0.4-2.9-0.8-5.9,0-8.9C67.8,89.9,81.3,86.4,90.4,77z M75.4,62.4c1.5,0,2.7,1.2,2.7,2.7c0,1.5-1.2,2.7-2.7,2.7
				c-1.5,0-2.7-1.2-2.7-2.7C72.7,63.6,73.9,62.4,75.4,62.4z"/>
		</g>
	</g>
	<g>
	</g>
	<g>
	</g>
	<g>
	</g>
	<g>
	</g>
	<g>
	</g>
	<g>
	</g>
	<g>
	</g>
	<g>
	</g>
	<g>
	</g>
	<g>
	</g>
	<g>
	</g>
	<g>
	</g>
	<g>
	</g>
	<g>
	</g>
	<g>
	</g>
</g>
</svg>
