<?xml version="1.0" encoding="utf-8"?>
<!-- Generator: Adobe Illustrator 21.0.2, SVG Export Plug-In . SVG Version: 6.00 Build 0)  -->
<svg version="1.1" id="Livello_1" xmlns="http://www.w3.org/2000/svg" xmlns:xlink="http://www.w3.org/1999/xlink" x="0px" y="0px"
	 viewBox="0 0 100 100" style="enable-background:new 0 0 100 100;" xml:space="preserve">
<style type="text/css">
	.st0{fill:#FFFFFF;}
</style>
<g>
	<g>
		<g>
			<path class="st0" d="M44.3,77.9c-3.9,3.6-9.3,4.4-14,2.1c-1.7-0.8-3.2-2-4.3-3.3L19.5,91c-0.3,0.7,0,1.1,0.2,1.3
				c0.2,0.2,0.6,0.6,1.3,0.4l4.7-1.3c0.5-0.1,1.1-0.2,1.6-0.2c2.3,0,4.4,1.3,5.4,3.4l2.1,4.4c0.3,0.6,0.9,0.7,1.1,0.7
				c0.2,0,0.8-0.1,1.1-0.7l10.3-22.8C46.3,76.4,45.3,77,44.3,77.9z"/>
		</g>
	</g>
	<g>
		<g>
			<path class="st0" d="M80.5,91L74,76.6c-1.1,1.4-2.6,2.5-4.3,3.3c-4.8,2.3-10.1,1.5-14-2.1c-0.9-0.8-2-1.4-3.1-1.8l10.3,22.8
				c0.3,0.7,0.9,0.7,1.1,0.7c0.2,0,0.8-0.1,1.1-0.7l2.1-4.4c1-2.1,3.2-3.4,5.4-3.4c0.5,0,1.1,0.1,1.6,0.2l4.7,1.3
				c0.7,0.2,1.1-0.2,1.3-0.4C80.5,92.1,80.8,91.6,80.5,91z"/>
		</g>
	</g>
	<g>
		<g>
			<path class="st0" d="M85.6,40.4c-5.4-3.7-7.1-11-3.8-16.7c2-3.4,0.9-6.8-0.7-8.8c-1.6-2-4.7-3.8-8.4-2.6
				c-6.2,1.9-13-1.3-15.4-7.4c-1.4-3.7-4.7-5-7.3-5c-2.6,0-5.8,1.3-7.3,5c-2.4,6.1-9.2,9.3-15.4,7.4c-3.8-1.1-6.8,0.6-8.4,2.6
				c-1.6,2-2.6,5.4-0.7,8.8c3.3,5.7,1.6,13-3.8,16.7c-3.2,2.2-3.8,5.7-3.2,8.2s2.6,5.4,6.5,6c6.5,1,11.1,6.9,10.7,13.4
				c-0.3,3.9,2.1,6.5,4.4,7.6c2.3,1.1,5.8,1.4,8.7-1.3c2.4-2.2,5.5-3.3,8.6-3.3c3.1,0,6.2,1.1,8.6,3.3c2.9,2.7,6.4,2.4,8.7,1.3
				c2.3-1.1,4.7-3.7,4.4-7.6c-0.5-6.5,4.2-12.4,10.7-13.4c3.9-0.6,5.9-3.5,6.5-6C89.4,46.1,88.8,42.7,85.6,40.4z M50,65.4
				c-14.1,0-25.6-11.5-25.6-25.6S35.9,14.1,50,14.1s25.6,11.5,25.6,25.6C75.6,53.9,64.1,65.4,50,65.4z"/>
		</g>
	</g>
	<g>
		<g>
			<path class="st0" d="M50,18.9c-11.5,0-20.8,9.4-20.8,20.8S38.5,60.6,50,60.6s20.8-9.4,20.8-20.8S61.5,18.9,50,18.9z M60.7,37.7
				l-13,9.5c-0.4,0.3-0.9,0.5-1.4,0.5c-0.1,0-0.3,0-0.4,0c-0.6-0.1-1.2-0.5-1.6-1l-3.9-5.5c-0.8-1.1-0.5-2.6,0.6-3.3
				c1.1-0.8,2.6-0.5,3.3,0.6l2.5,3.5l11-8c1.1-0.8,2.6-0.5,3.3,0.5C62,35.5,61.7,37,60.7,37.7z"/>
		</g>
	</g>
	<g>
	</g>
	<g>
	</g>
	<g>
	</g>
	<g>
	</g>
	<g>
	</g>
	<g>
	</g>
	<g>
	</g>
	<g>
	</g>
	<g>
	</g>
	<g>
	</g>
	<g>
	</g>
	<g>
	</g>
	<g>
	</g>
	<g>
	</g>
	<g>
	</g>
</g>
</svg>
