<?xml version="1.0" encoding="utf-8"?>
<!-- Generator: Adobe Illustrator 21.0.2, SVG Export Plug-In . SVG Version: 6.00 Build 0)  -->
<svg version="1.1" id="Livello_1" xmlns="http://www.w3.org/2000/svg" xmlns:xlink="http://www.w3.org/1999/xlink" x="0px" y="0px"
	 viewBox="0 0 100 100" style="enable-background:new 0 0 100 100;" xml:space="preserve">
<style type="text/css">
	.st0{fill:url(#SVGID_1_);}
	.st1{fill:url(#SVGID_2_);}
</style>
<g>
	<linearGradient id="SVGID_1_" gradientUnits="userSpaceOnUse" x1="50.1552" y1="0" x2="50.1552" y2="100">
		<stop  offset="4.697903e-08" style="stop-color:#A8FF78"/>
		<stop  offset="1" style="stop-color:#78FFD6"/>
	</linearGradient>
	<path class="st0" d="M50.1,0C22.5,0,0.2,22.4,0.2,50s22.3,50,49.9,50c27.7,0,50.1-22.4,50.1-50S77.8,0,50.1,0z M50.2,90
		c-22.1,0-40-17.9-40-40s17.9-40,40-40s40,17.9,40,40S72.3,90,50.2,90z"/>
	<linearGradient id="SVGID_2_" gradientUnits="userSpaceOnUse" x1="50.1552" y1="20.7212" x2="50.1552" y2="79.2788">
		<stop  offset="4.697903e-08" style="stop-color:#A8FF78"/>
		<stop  offset="1" style="stop-color:#78FFD6"/>
	</linearGradient>
	<path class="st1" d="M51.4,46.4c-7.4-1.9-9.8-3.9-9.8-7c0-3.5,3.3-6,8.8-6c5.8,0,7.9,2.8,8.1,6.8h7.2c-0.2-5.6-3.6-10.7-10.4-12.4
		v-7.1h-9.8v7c-6.3,1.4-11.4,5.5-11.4,11.7c0,7.5,6.2,11.3,15.3,13.4c8.1,2,9.8,4.8,9.8,7.8c0,2.2-1.6,5.8-8.8,5.8
		c-6.7,0-9.3-3-9.7-6.8h-7.2c0.4,7.1,5.7,11.1,12,12.5v7.1h9.8v-7c6.3-1.2,11.4-4.9,11.4-11.5C66.7,51.5,58.8,48.3,51.4,46.4z"/>
</g>
</svg>
