<?xml version="1.0" encoding="utf-8"?>
<!-- Generator: Adobe Illustrator 21.0.2, SVG Export Plug-In . SVG Version: 6.00 Build 0)  -->
<svg version="1.1" id="Livello_1" xmlns="http://www.w3.org/2000/svg" xmlns:xlink="http://www.w3.org/1999/xlink" x="0px" y="0px"
	 viewBox="0 0 100 100" style="enable-background:new 0 0 100 100;" xml:space="preserve">
<style type="text/css">
	.st0{fill:#333333;}
</style>
<path class="st0" d="M50,0.5C22.6,0.5,0.5,22.7,0.5,50S22.6,99.5,50,99.5S99.5,77.3,99.5,50S77.3,0.5,50,0.5z M50,89.6
	c-21.9,0-39.6-17.7-39.6-39.6S28.1,10.4,50,10.4S89.6,28.1,89.6,50S71.9,89.6,50,89.6z M67.3,45c4.1,0,7.4-3.3,7.4-7.4
	s-3.3-7.4-7.4-7.4s-7.4,3.3-7.4,7.4S63.2,45,67.3,45z M32.7,45c4.1,0,7.4-3.3,7.4-7.4s-3.3-7.4-7.4-7.4s-7.4,3.3-7.4,7.4
	S28.6,45,32.7,45z M50,74.8c11.5,0,21.3-7.2,25.3-17.3H24.7C28.7,67.6,38.5,74.8,50,74.8z"/>
</svg>
